<svg width="69" height="103" viewBox="0 0 99 103" fill="none" xmlns="http://www.w3.org/2000/svg">
<path d="M98.5283 51.5C98.5283 79.9427 76.472 103 49.2642 103C22.0563 103 3.05176e-05 79.9427 3.05176e-05 51.5C3.05176e-05 23.0573 22.0563 0 49.2642 0C76.472 0 98.5283 23.0573 98.5283 51.5Z" fill="#FFE20C"/>
<path d="M65.433 38.9652C65.3463 38.8375 65.2378 38.7348 65.1151 38.6642C64.9924 38.5937 64.8586 38.5572 64.7231 38.5571H39.6218L38.8257 33.1727C38.7355 32.5629 38.4736 32.0113 38.0858 31.6143C37.6979 31.2172 37.2087 30.9998 36.7036 31H33.924C33.6789 31 33.4439 31.1194 33.2706 31.332C33.0973 31.5446 33 31.8329 33 32.1336C33 32.4342 33.0973 32.7225 33.2706 32.9351C33.4439 33.1477 33.6789 33.2671 33.924 33.2671H36.6959C36.7688 33.2657 36.8398 33.296 36.8962 33.3528C36.9526 33.4095 36.9908 33.489 37.0039 33.577L40.9323 60.0837C41.0569 60.9292 41.3927 61.7063 41.8933 62.3074C41.2889 62.9004 40.8375 63.6957 40.5939 64.5969C40.3502 65.4981 40.3247 66.4667 40.5204 67.3853C40.716 68.304 41.1245 69.1333 41.6964 69.7731C42.2683 70.4129 42.979 70.8356 43.7427 70.9901C44.5063 71.1446 45.29 71.0242 45.9991 70.6437C46.7081 70.2631 47.312 69.6385 47.7378 68.8456C48.1635 68.0527 48.3928 67.1254 48.398 66.1759C48.4031 65.2264 48.1838 64.2955 47.7667 63.4957H55.8083C55.3295 64.415 55.1137 65.5037 55.1951 66.5901C55.2764 67.6764 55.6502 68.6987 56.2576 69.4956C56.8649 70.2924 57.6712 70.8186 58.5492 70.9911C59.4273 71.1636 60.3271 70.9725 61.1069 70.4481C61.8866 69.9237 62.5019 69.0957 62.8556 68.0948C63.2094 67.0939 63.2815 65.977 63.0605 64.9202C62.8396 63.8635 62.3382 62.9271 61.6354 62.2586C60.9327 61.5902 60.0685 61.2278 59.1793 61.2286H44.2679C43.9072 61.2286 43.558 61.0734 43.2811 60.79C43.0042 60.5065 42.8171 60.1128 42.7526 59.6775L42.1982 55.9386H60.4266C61.2201 55.9388 61.9884 55.5974 62.5977 54.9739C63.207 54.3503 63.6186 53.4842 63.7606 52.5265L65.6317 39.8929C65.6559 39.7298 65.6506 39.5623 65.6163 39.402C65.582 39.2417 65.5194 39.0926 65.433 38.9652ZM46.5516 66.1407C46.5516 66.6639 46.4252 67.1752 46.1883 67.6102C45.9514 68.0452 45.6147 68.3842 45.2207 68.5844C44.8268 68.7846 44.3933 68.837 43.9751 68.7349C43.5569 68.6328 43.1727 68.3809 42.8712 68.011C42.5697 67.6411 42.3644 67.1698 42.2812 66.6567C42.198 66.1437 42.2407 65.6118 42.4039 65.1285C42.567 64.6452 42.8434 64.2321 43.1979 63.9415C43.5525 63.6508 43.9693 63.4957 44.3957 63.4957C44.9675 63.4957 45.5158 63.7744 45.9202 64.2704C46.3245 64.7665 46.5516 65.4392 46.5516 66.1407ZM61.3352 66.1407C61.3352 66.6639 61.2088 67.1752 60.9719 67.6102C60.735 68.0452 60.3983 68.3842 60.0043 68.5844C59.6104 68.7846 59.1769 68.837 58.7587 68.7349C58.3405 68.6328 57.9563 68.3809 57.6548 68.011C57.3533 67.6411 57.148 67.1698 57.0648 66.6567C56.9816 66.1437 57.0243 65.6118 57.1875 65.1285C57.3506 64.6452 57.627 64.2321 57.9815 63.9415C58.336 63.6508 58.7529 63.4957 59.1793 63.4957C59.7511 63.4957 60.2994 63.7744 60.7038 64.2704C61.1081 64.7665 61.3352 65.4392 61.3352 66.1407ZM61.942 52.1203C61.8774 52.5556 61.6904 52.9494 61.4134 53.2328C61.1365 53.5163 60.7873 53.6715 60.4266 53.6714H41.8625L39.9591 40.8243H63.6159L61.942 52.1203Z" fill="#5C3D32"/>
</svg>
