<svg width="46" height="47" viewBox="0 0 46 47" fill="none" xmlns="http://www.w3.org/2000/svg">
<ellipse cx="23" cy="26" rx="23" ry="21" fill="#FFE20C"/>
<path d="M33.8527 18.05C33.7868 17.9708 33.7042 17.907 33.6108 17.8633C33.5174 17.8196 33.4156 17.7969 33.3125 17.7969H14.2109L13.6051 14.457C13.5364 14.0788 13.3372 13.7367 13.042 13.4904C12.7469 13.2441 12.3746 13.1092 11.9902 13.1094H9.875C9.68852 13.1094 9.50968 13.1835 9.37782 13.3153C9.24595 13.4472 9.17188 13.626 9.17188 13.8125C9.17188 13.999 9.24595 14.1778 9.37782 14.3097C9.50968 14.4415 9.68852 14.5156 9.875 14.5156H11.9844C12.0399 14.5147 12.0939 14.5335 12.1368 14.5687C12.1797 14.6039 12.2088 14.6532 12.2188 14.7078L15.2082 31.1492C15.303 31.6737 15.5586 32.1557 15.9395 32.5285C15.4795 32.8964 15.1361 33.3897 14.9507 33.9487C14.7652 34.5077 14.7458 35.1084 14.8947 35.6782C15.0436 36.248 15.3545 36.7625 15.7896 37.1593C16.2248 37.5561 16.7657 37.8183 17.3468 37.9142C17.9279 38.01 18.5243 37.9354 19.0639 37.6993C19.6035 37.4632 20.063 37.0758 20.387 36.584C20.711 36.0922 20.8855 35.517 20.8894 34.9281C20.8933 34.3391 20.7264 33.7617 20.409 33.2656H26.5285C26.1641 33.8358 26 34.5111 26.0619 35.185C26.1238 35.8588 26.4082 36.4929 26.8704 36.9872C27.3325 37.4815 27.9461 37.8078 28.6143 37.9148C29.2825 38.0218 29.9672 37.9033 30.5606 37.578C31.154 37.2527 31.6222 36.7392 31.8914 36.1183C32.1606 35.4975 32.2154 34.8047 32.0473 34.1492C31.8792 33.4937 31.4976 32.9129 30.9628 32.4983C30.428 32.0837 29.7704 31.8589 29.0938 31.8594H17.7465C17.472 31.8594 17.2063 31.7631 16.9956 31.5873C16.7848 31.4115 16.6425 31.1673 16.5934 30.8973L16.1715 28.5781H30.043C30.6468 28.5783 31.2314 28.3665 31.6951 27.9797C32.1587 27.593 32.4719 27.0557 32.5801 26.4617L34.0039 18.6254C34.0223 18.5243 34.0183 18.4203 33.9922 18.3209C33.9661 18.2215 33.9185 18.129 33.8527 18.05ZM19.4844 34.9062C19.4844 35.2307 19.3882 35.5479 19.2079 35.8177C19.0276 36.0875 18.7714 36.2978 18.4716 36.422C18.1718 36.5462 17.8419 36.5787 17.5237 36.5154C17.2054 36.452 16.9131 36.2958 16.6837 36.0663C16.4542 35.8369 16.298 35.5446 16.2346 35.2263C16.1713 34.9081 16.2038 34.5782 16.328 34.2784C16.4522 33.9786 16.6625 33.7224 16.9323 33.5421C17.2021 33.3618 17.5193 33.2656 17.8438 33.2656C18.2789 33.2656 18.6962 33.4385 19.0038 33.7462C19.3115 34.0538 19.4844 34.4711 19.4844 34.9062ZM30.7344 34.9062C30.7344 35.2307 30.6382 35.5479 30.4579 35.8177C30.2776 36.0875 30.0214 36.2978 29.7216 36.422C29.4218 36.5462 29.0919 36.5787 28.7737 36.5154C28.4554 36.452 28.1631 36.2958 27.9337 36.0663C27.7042 35.8369 27.548 35.5446 27.4846 35.2263C27.4213 34.9081 27.4538 34.5782 27.578 34.2784C27.7022 33.9786 27.9125 33.7224 28.1823 33.5421C28.4521 33.3618 28.7693 33.2656 29.0938 33.2656C29.5289 33.2656 29.9462 33.4385 30.2538 33.7462C30.5615 34.0538 30.7344 34.4711 30.7344 34.9062ZM31.1961 26.2098C31.147 26.4798 31.0046 26.724 30.7939 26.8998C30.5832 27.0756 30.3174 27.1719 30.043 27.1719H15.916L14.4676 19.2031H32.4699L31.1961 26.2098Z" fill="#5C3D32"/>
<path d="M45.5 9.5C45.5 14.5872 42.2623 18.5 38.5 18.5C34.7377 18.5 31.5 14.5872 31.5 9.5C31.5 4.41282 34.7377 0.5 38.5 0.5C42.2623 0.5 45.5 4.41282 45.5 9.5Z" fill="white" stroke="#D3D3D3"/>
<path d="M38.388 13.144C38.028 13.144 37.704 13.068 37.416 12.916C37.136 12.764 36.912 12.524 36.744 12.196C36.584 11.86 36.504 11.428 36.504 10.9V7.888C36.504 7.176 36.684 6.652 37.044 6.316C37.412 5.98 37.868 5.812 38.412 5.812C38.94 5.812 39.38 5.984 39.732 6.328C40.084 6.664 40.26 7.184 40.26 7.888V10.9C40.26 11.436 40.18 11.872 40.02 12.208C39.86 12.536 39.636 12.776 39.348 12.928C39.068 13.072 38.748 13.144 38.388 13.144ZM38.388 12.58C38.668 12.58 38.896 12.472 39.072 12.256C39.256 12.04 39.348 11.728 39.348 11.32V7.66C39.348 7.252 39.252 6.94 39.06 6.724C38.876 6.508 38.652 6.4 38.388 6.4C38.116 6.4 37.888 6.508 37.704 6.724C37.52 6.94 37.428 7.252 37.428 7.66V11.32C37.428 11.728 37.52 12.04 37.704 12.256C37.888 12.472 38.116 12.58 38.388 12.58Z" fill="#5C3D32"/>
</svg>
